<svg width="275" height="275" xmlns="http://www.w3.org/2000/svg" >

  <rect x= "21" y="36" width="200" height="200" fill="#ffffff" stroke="#000000" stroke-width="7" rx="40" ry="40"/>

  <line x1="20" y1="95" x2="110" y2="140" stroke="#000000" stroke-width="20" transform="translate(75, 50) scale(0.9)"/>
  <line x1="20" y1="185" x2="110" y2="140" stroke="#000000" stroke-width="20" transform="translate(75, 50) scale(0.9)"/>

  <line x1="20" y1="95" x2="110" y2="140" stroke="#ffffff" stroke-width="13" transform="translate(75, 50) scale(0.9)"/>
  <line x1="20" y1="185" x2="110" y2="140" stroke="#ffffff" stroke-width="13" transform="translate(75, 50) scale(0.9)"/>

  <circle cx="20" cy="185" r="12" fill="#ffffff" stroke="#000000" stroke-width="7" transform="translate(75, 50) scale(0.9)"/>
  <circle cx="20" cy="95" r="12" fill="#ffffff" stroke="#000000" stroke-width="7" transform="translate(75, 50) scale(0.9)"/>
  <circle cx="110" cy="140" r="12" fill="#ffffff" stroke="#000000" stroke-width="7" transform="translate(75, 50) scale(0.9)"/>

  <line x1="20" y1="65" x2="110" y2="110" stroke="#000000" stroke-width="20" transform="translate(54, 38) scale(0.9)"/>
  <line x1="20" y1="65" x2="110" y2="20" stroke="#000000" stroke-width="20" transform="translate(54, 38) scale(0.9)"/>

  <line x1="20" y1="65" x2="110" y2="110" stroke="#ffffff" stroke-width="13" transform="translate(54, 38) scale(0.9)"/>
  <line x1="20" y1="65" x2="110" y2="20" stroke="#ffffff" stroke-width="13" transform="translate(54, 38) scale(0.9)"/>

  <circle cx="20" cy="65" r="12" fill="#ffffff" stroke="#000000" stroke-width="7" transform="translate(54, 38) scale(0.9)"/>
  <circle cx="110" cy="20" r="12" fill="#ffffff" stroke="#000000" stroke-width="7" transform="translate(54, 38) scale(0.9)"/>
  <circle cx="110" cy="110" r="12" fill="#ffffff" stroke="#000000" stroke-width="7" transform="translate(54, 38) scale(0.9)"/>

</svg>