<svg width="3005" height="3205" viewBox="8 20 275 305" xmlns="http://www.w3.org/2000/svg">

  <rect x= "20" y="57" width="170" height="170" fill="#ffffff" stroke="#000000" stroke-width="7" rx="10" ry="10" transform="rotate(334, 100, 100)"/>

  <line x1="20" y1="95" x2="110" y2="140" stroke="#000000" stroke-width="20" transform="translate(75, 50) scale(0.9)"/>
  <line x1="20" y1="185" x2="110" y2="140" stroke="#000000" stroke-width="20" transform="translate(75, 50) scale(0.9)"/>

  <line x1="20" y1="95" x2="110" y2="140" stroke="#ffffff" stroke-width="13" transform="translate(75, 50) scale(0.9)"/>
  <line x1="20" y1="185" x2="110" y2="140" stroke="#ffffff" stroke-width="13" transform="translate(75, 50) scale(0.9)"/>

  <circle cx="20" cy="185" r="12" fill="#ffffff" stroke="#000000" stroke-width="7" transform="translate(75, 50) scale(0.9)"/>
  <circle cx="20" cy="95" r="12" fill="#ffffff" stroke="#000000" stroke-width="7" transform="translate(75, 50) scale(0.9)"/>
  <circle cx="110" cy="140" r="12" fill="#ffffff" stroke="#000000" stroke-width="7" transform="translate(75, 50) scale(0.9)"/>

  <line x1="20" y1="65" x2="110" y2="110" stroke="#000000" stroke-width="20" transform="translate(54, 38) scale(0.9)"/>
  <line x1="20" y1="65" x2="110" y2="20" stroke="#000000" stroke-width="20" transform="translate(54, 38) scale(0.9)"/>

  <line x1="20" y1="65" x2="110" y2="110" stroke="#ffffff" stroke-width="13" transform="translate(54, 38) scale(0.9)"/>
  <line x1="20" y1="65" x2="110" y2="20" stroke="#ffffff" stroke-width="13" transform="translate(54, 38) scale(0.9)"/>

  <circle cx="20" cy="65" r="12" fill="#ffffff" stroke="#000000" stroke-width="7" transform="translate(54, 38) scale(0.9)"/>
  <circle cx="110" cy="20" r="12" fill="#ffffff" stroke="#000000" stroke-width="7" transform="translate(54, 38) scale(0.9)"/>
  <circle cx="110" cy="110" r="12" fill="#ffffff" stroke="#000000" stroke-width="7" transform="translate(54, 38) scale(0.9)"/>

  <!-- Text -->
  <text x="110" y="256" font-family="Roboto, sans-serif" font-size="25" fill="#000000" text-anchor="middle"  transform="rotate(334, 100, 100)">ENDOSHARE</text>
</svg>